<?xml version="1.0" standalone="no"?>
<!DOCTYPE svg PUBLIC "-//W3C//DTD SVG 20010904//EN"
 "http://www.w3.org/TR/2001/REC-SVG-20010904/DTD/svg10.dtd">
<svg version="1.0" xmlns="http://www.w3.org/2000/svg"
 width="300.000000pt" height="300.000000pt" viewBox="0 0 300.000000 300.000000"
 preserveAspectRatio="xMidYMid meet">
<metadata>
Created by potrace 1.11, written by Peter Selinger 2001-2013
</metadata>
<g transform="translate(0.000000,300.000000) scale(0.100000,-0.100000)"
fill="#000000" stroke="none">
<path d="M270 1240 l0 -1070 129 0 130 0 0 483 c0 401 3 492 16 540 55 210
184 317 401 334 152 11 268 -45 321 -157 12 -25 24 -58 27 -75 2 -16 5 -276 5
-577 l1 -548 128 0 129 0 -2 578 c-2 317 -5 588 -9 602 -3 14 -9 41 -12 60
-27 146 -140 269 -294 321 -95 32 -269 36 -376 9 -149 -38 -266 -117 -313
-213 -14 -29 -21 -36 -22 -22 0 11 0 197 0 413 l0 392 -130 0 -129 0 0 -1070z"/>
<path d="M2194 2141 l1 -169 -65 25 c-205 77 -252 94 -255 91 -2 -2 -15 -34
-29 -71 l-25 -68 22 -8 c19 -7 68 -25 249 -90 l46 -16 -93 -130 c-52 -72 -94
-134 -94 -140 0 -5 29 -29 63 -52 75 -49 58 -60 166 102 40 61 78 116 85 123
10 12 31 -12 115 -127 l102 -142 32 24 c17 13 43 32 58 43 33 23 34 31 8 64
-43 53 -171 232 -168 235 2 1 73 26 158 55 85 30 157 55 159 56 5 4 -51 144
-58 144 -7 0 -219 -78 -259 -96 -60 -26 -59 -29 -58 149 l0 162 -80 3 -80 3 0
-170z"/>
</g>
</svg>
